<?xml version="1.0" encoding="UTF-8"?> <svg xmlns="http://www.w3.org/2000/svg" version="1.1" width="645" height="180" viewBox="0 0 645 180" xml:space="preserve"><defs></defs><style>.st0{fill:#00467d}</style><g id="g13842" transform="matrix(3.85675 0 0 3.85814 -1514.536 -165.105)"><g id="g638" transform="translate(547.099 88.393)"><path id="path640" class="st0" d="M-7.4-23c-.6-1-1.9-1.8-3.6-2-.6-.1-1.1-.1-1.7 0-.7 0-1.4.2-2.4.4-.2.1-.4.2-.5.4-.1.2-.2.4-.2.5v.3c0 .2.1.4.2.5.1.1.3.1.4.1h.3s.3-.1.9-.1v.1c0 .2.1.5.1.9.1 1.9 0 5.6-2.7 8.6-2.1 2.4-4.5 3.7-7.5 4.1-.3 0-.6.1-.8.1-2.7.2-5.6-.3-8.2-1.7-3.1-1.6-5.2-3.9-6.3-5l-.4-.4c-.1-.1-.2-.2-.5-.2-.1 0-.2.1-.3.1-.2.2-.3.5-.5.8-.1.4-.2.7-.2 1 .1.6.2 3.1 2.4 4.9.8.7 1.7 1.2 2.5 1.5.8.3 1.3.5 1.6.5.2 0 .3-.1.4-.2.1-.1.1-.2.1-.4 0-.5-.3-1.1-.3-1.1l-.1-.1s-.2 0-.3-.1c-.3-.1-1.2-.4-2.2-1.1-1.5-1-2.2-2.4-2.5-3.4 1.5 1.7 4 3.8 5.9 4.7 2.5 1.2 5.9 2.3 9.6 2 1.8-.1 3.7-.6 5.5-1.6 2.6-1.4 4.7-3.4 6-6 1.6-2.9 1.6-6.3 1.5-7.8v-.5c.4.1 1.2.5 1.9 1.4 0 0 .2.2.4.3h.3c.2 0 .3-.1.5-.1.2-.1.4-.3.6-.5.2-.2.4-.5.4-.8-.3 0-.3-.1-.3-.1"></path></g><g id="g642" transform="translate(420.791 102.118)"><path id="path644" class="st0" d="M6.2-49c6.4-.5 9.9 2.9 9.9 2.9l-2 3.7s-3.2-2.6-7.4-2.3c-5.5.4-8.5 4.7-8.2 9.6.4 5 4 9.1 9.5 8.7 4.5-.3 7.4-3.8 7.4-3.8l2.8 3.3s-3.3 4.5-10 5c-8 .6-14-5-14.5-12.7-.5-7.6 4.8-13.9 12.5-14.4"></path></g><g id="g646" transform="translate(433.671 94.212)"><path id="path648" class="st0" d="M4.8-34.1l4.7-.3.8 11.1c.2 2.3.9 3.8 3.2 3.6 3.4-.2 5.1-3.4 4.8-6.7l-.6-8.6 4.7-.3 1.3 18.8-4.5.3-.1-2.1c-.1-.7 0-1.3 0-1.3H19c-.8 2-3 4.1-6.3 4.4-4 .3-6.7-1.6-7-6.7"></path></g><g id="g650" transform="translate(455.12 104.023)"><path id="path652" class="st0" d="M2.5-52.6l4.6-.3 1.4 19.6c.1 2.1.9 2.5 2.1 2.4.4 0 .7-.1.7-.1l.3 4.1s-.7.2-1.5.2c-2.6.2-5.8-.3-6.2-5.6"></path></g><g id="g654" transform="translate(492.132 98.306)"><path id="path656" class="st0" d="M-1.5-41.8l.6 8.6c.2 3.4-1.4 6.5-4.8 6.7-2.3.2-3-1.3-3.2-3.6l-.8-11.1-10.5.7-.4-5.1-4.6.3.4 5.1-2.5.2.3 3.7 2.4-.2.6 8.2c.4 6.3 5.7 6.7 8.3 6.5.9-.1 1.4-.2 1.4-.2l-.3-4.1s-.3.1-.8.1c-1.3.1-3.8-.2-4-3.3l-.5-7.6 5.8-.4.6 8.4c.4 5.1 3 7 7 6.7 3.2-.2 5.5-2.3 6.3-4.4h.1v1.3L0-23l4.5-.3-1.3-18.8"></path></g><g id="g658" transform="translate(500.192 98.868)"><path id="path660" class="st0" d="M-2.4-42.9l4.5-.3.2 3.2c.1.7 0 1.3 0 1.3h.1c.7-2.8 2.8-5 5.6-5.3h.9l.3 4.6H8.1c-2 .1-4.2 1.4-4.9 4.3-.2.9-.3 2-.2 3.1l.5 7.5-4.6.5"></path></g><g id="g662" transform="translate(525.342 92.732)"><path id="path664" class="st0" d="M-5.1-31.3h.6v-.3c-.2-2.5-1.8-3.2-3.8-3.1-2.7.2-5 2.2-5 2.2l-2-3.2s2.8-2.5 7.2-2.8c4.9-.3 8 2.2 8.3 6.9L1-19.8l-4.3.3-.1-1.5c-.1-.7 0-1.3 0-1.3h-.1s-1.2 3.4-5.5 3.7c-3.4.2-6.5-1.7-6.8-5.4-.4-6.1 7.6-7 10.7-7.3m-3 8.9c2.5-.2 4.1-3 3.9-5.2v-.4H-5c-2.4.2-6.3.8-6.1 3.4.1 1.2 1.1 2.3 3 2.2"></path></g></g></svg> 